<svg xmlns="http://www.w3.org/2000/svg" viewBox="0 0 880 352" width="880" height="352" role="img">
<rect width="880" height="352" rx="10" fill="#1a1a19"/>
<text x="28" y="34" font-family="system-ui,-apple-system,'Segoe UI',Helvetica,Arial,sans-serif" font-size="17" font-weight="600" fill="#ffffff" text-anchor="start">Your work only calls a fraction of the experts</text>
<text x="28" y="56" font-family="system-ui,-apple-system,'Segoe UI',Helvetica,Arial,sans-serif" font-size="12.5" font-weight="400" fill="#c3c2b7" text-anchor="start">Each square is one expert. Shading = how often your workload actually activates it.</text>
<rect x="28" y="86" width="20" height="20" rx="4" fill="#3987e5"/><rect x="52" y="86" width="20" height="20" rx="4" fill="#3987e5"/><rect x="76" y="86" width="20" height="20" rx="4" fill="#3987e5"/><rect x="100" y="86" width="20" height="20" rx="4" fill="#3987e5"/><rect x="124" y="86" width="20" height="20" rx="4" fill="#2b2b29" stroke="#4a4a44" stroke-width="1"/><rect x="148" y="86" width="20" height="20" rx="4" fill="#256abf"/><rect x="172" y="86" width="20" height="20" rx="4" fill="#3987e5"/><rect x="196" y="86" width="20" height="20" rx="4" fill="#86b6ef"/><rect x="220" y="86" width="20" height="20" rx="4" fill="#3987e5"/><rect x="244" y="86" width="20" height="20" rx="4" fill="#86b6ef"/><rect x="268" y="86" width="20" height="20" rx="4" fill="#256abf"/><rect x="292" y="86" width="20" height="20" rx="4" fill="#256abf"/><rect x="316" y="86" width="20" height="20" rx="4" fill="#86b6ef"/><rect x="340" y="86" width="20" height="20" rx="4" fill="#2b2b29" stroke="#4a4a44" stroke-width="1"/><rect x="364" y="86" width="20" height="20" rx="4" fill="#2b2b29" stroke="#4a4a44" stroke-width="1"/><rect x="388" y="86" width="20" height="20" rx="4" fill="#256abf"/><rect x="28" y="110" width="20" height="20" rx="4" fill="#3987e5"/><rect x="52" y="110" width="20" height="20" rx="4" fill="#256abf"/><rect x="76" y="110" width="20" height="20" rx="4" fill="#256abf"/><rect x="100" y="110" width="20" height="20" rx="4" fill="#2b2b29" stroke="#4a4a44" stroke-width="1"/><rect x="124" y="110" width="20" height="20" rx="4" fill="#86b6ef"/><rect x="148" y="110" width="20" height="20" rx="4" fill="#86b6ef"/><rect x="172" y="110" width="20" height="20" rx="4" fill="#2b2b29" stroke="#4a4a44" stroke-width="1"/><rect x="196" y="110" width="20" height="20" rx="4" fill="#256abf"/><rect x="220" y="110" width="20" height="20" rx="4" fill="#3987e5"/><rect x="244" y="110" width="20" height="20" rx="4" fill="#3987e5"/><rect x="268" y="110" width="20" height="20" rx="4" fill="#256abf"/><rect x="292" y="110" width="20" height="20" rx="4" fill="#256abf"/><rect x="316" y="110" width="20" height="20" rx="4" fill="#3987e5"/><rect x="340" y="110" width="20" height="20" rx="4" fill="#256abf"/><rect x="364" y="110" width="20" height="20" rx="4" fill="#2b2b29" stroke="#4a4a44" stroke-width="1"/><rect x="388" y="110" width="20" height="20" rx="4" fill="#256abf"/><rect x="28" y="134" width="20" height="20" rx="4" fill="#3987e5"/><rect x="52" y="134" width="20" height="20" rx="4" fill="#3987e5"/><rect x="76" y="134" width="20" height="20" rx="4" fill="#86b6ef"/><rect x="100" y="134" width="20" height="20" rx="4" fill="#2b2b29" stroke="#4a4a44" stroke-width="1"/><rect x="124" y="134" width="20" height="20" rx="4" fill="#3987e5"/><rect x="148" y="134" width="20" height="20" rx="4" fill="#86b6ef"/><rect x="172" y="134" width="20" height="20" rx="4" fill="#2b2b29" stroke="#4a4a44" stroke-width="1"/><rect x="196" y="134" width="20" height="20" rx="4" fill="#256abf"/><rect x="220" y="134" width="20" height="20" rx="4" fill="#3987e5"/><rect x="244" y="134" width="20" height="20" rx="4" fill="#3987e5"/><rect x="268" y="134" width="20" height="20" rx="4" fill="#256abf"/><rect x="292" y="134" width="20" height="20" rx="4" fill="#2b2b29" stroke="#4a4a44" stroke-width="1"/><rect x="316" y="134" width="20" height="20" rx="4" fill="#256abf"/><rect x="340" y="134" width="20" height="20" rx="4" fill="#2b2b29" stroke="#4a4a44" stroke-width="1"/><rect x="364" y="134" width="20" height="20" rx="4" fill="#3987e5"/><rect x="388" y="134" width="20" height="20" rx="4" fill="#86b6ef"/><rect x="28" y="158" width="20" height="20" rx="4" fill="#2b2b29" stroke="#4a4a44" stroke-width="1"/><rect x="52" y="158" width="20" height="20" rx="4" fill="#3987e5"/><rect x="76" y="158" width="20" height="20" rx="4" fill="#2b2b29" stroke="#4a4a44" stroke-width="1"/><rect x="100" y="158" width="20" height="20" rx="4" fill="#2b2b29" stroke="#4a4a44" stroke-width="1"/><rect x="124" y="158" width="20" height="20" rx="4" fill="#256abf"/><rect x="148" y="158" width="20" height="20" rx="4" fill="#256abf"/><rect x="172" y="158" width="20" height="20" rx="4" fill="#256abf"/><rect x="196" y="158" width="20" height="20" rx="4" fill="#256abf"/><rect x="220" y="158" width="20" height="20" rx="4" fill="#86b6ef"/><rect x="244" y="158" width="20" height="20" rx="4" fill="#3987e5"/><rect x="268" y="158" width="20" height="20" rx="4" fill="#3987e5"/><rect x="292" y="158" width="20" height="20" rx="4" fill="#256abf"/><rect x="316" y="158" width="20" height="20" rx="4" fill="#256abf"/><rect x="340" y="158" width="20" height="20" rx="4" fill="#2b2b29" stroke="#4a4a44" stroke-width="1"/><rect x="364" y="158" width="20" height="20" rx="4" fill="#2b2b29" stroke="#4a4a44" stroke-width="1"/><rect x="388" y="158" width="20" height="20" rx="4" fill="#256abf"/><rect x="28" y="182" width="20" height="20" rx="4" fill="#3987e5"/><rect x="52" y="182" width="20" height="20" rx="4" fill="#3987e5"/><rect x="76" y="182" width="20" height="20" rx="4" fill="#256abf"/><rect x="100" y="182" width="20" height="20" rx="4" fill="#256abf"/><rect x="124" y="182" width="20" height="20" rx="4" fill="#3987e5"/><rect x="148" y="182" width="20" height="20" rx="4" fill="#256abf"/><rect x="172" y="182" width="20" height="20" rx="4" fill="#86b6ef"/><rect x="196" y="182" width="20" height="20" rx="4" fill="#86b6ef"/><rect x="220" y="182" width="20" height="20" rx="4" fill="#256abf"/><rect x="244" y="182" width="20" height="20" rx="4" fill="#3987e5"/><rect x="268" y="182" width="20" height="20" rx="4" fill="#3987e5"/><rect x="292" y="182" width="20" height="20" rx="4" fill="#256abf"/><rect x="316" y="182" width="20" height="20" rx="4" fill="#3987e5"/><rect x="340" y="182" width="20" height="20" rx="4" fill="#2b2b29" stroke="#4a4a44" stroke-width="1"/><rect x="364" y="182" width="20" height="20" rx="4" fill="#256abf"/><rect x="388" y="182" width="20" height="20" rx="4" fill="#3987e5"/><rect x="28" y="206" width="20" height="20" rx="4" fill="#2b2b29" stroke="#4a4a44" stroke-width="1"/><rect x="52" y="206" width="20" height="20" rx="4" fill="#86b6ef"/><rect x="76" y="206" width="20" height="20" rx="4" fill="#2b2b29" stroke="#4a4a44" stroke-width="1"/><rect x="100" y="206" width="20" height="20" rx="4" fill="#3987e5"/><rect x="124" y="206" width="20" height="20" rx="4" fill="#2b2b29" stroke="#4a4a44" stroke-width="1"/><rect x="148" y="206" width="20" height="20" rx="4" fill="#86b6ef"/><rect x="172" y="206" width="20" height="20" rx="4" fill="#86b6ef"/><rect x="196" y="206" width="20" height="20" rx="4" fill="#86b6ef"/><rect x="220" y="206" width="20" height="20" rx="4" fill="#256abf"/><rect x="244" y="206" width="20" height="20" rx="4" fill="#86b6ef"/><rect x="268" y="206" width="20" height="20" rx="4" fill="#256abf"/><rect x="292" y="206" width="20" height="20" rx="4" fill="#3987e5"/><rect x="316" y="206" width="20" height="20" rx="4" fill="#256abf"/><rect x="340" y="206" width="20" height="20" rx="4" fill="#2b2b29" stroke="#4a4a44" stroke-width="1"/><rect x="364" y="206" width="20" height="20" rx="4" fill="#256abf"/><rect x="388" y="206" width="20" height="20" rx="4" fill="#256abf"/><rect x="28" y="230" width="20" height="20" rx="4" fill="#2b2b29" stroke="#4a4a44" stroke-width="1"/><rect x="52" y="230" width="20" height="20" rx="4" fill="#3987e5"/><rect x="76" y="230" width="20" height="20" rx="4" fill="#256abf"/><rect x="100" y="230" width="20" height="20" rx="4" fill="#86b6ef"/><rect x="124" y="230" width="20" height="20" rx="4" fill="#256abf"/><rect x="148" y="230" width="20" height="20" rx="4" fill="#256abf"/><rect x="172" y="230" width="20" height="20" rx="4" fill="#256abf"/><rect x="196" y="230" width="20" height="20" rx="4" fill="#86b6ef"/><rect x="220" y="230" width="20" height="20" rx="4" fill="#86b6ef"/><rect x="244" y="230" width="20" height="20" rx="4" fill="#3987e5"/><rect x="268" y="230" width="20" height="20" rx="4" fill="#2b2b29" stroke="#4a4a44" stroke-width="1"/><rect x="292" y="230" width="20" height="20" rx="4" fill="#86b6ef"/><rect x="316" y="230" width="20" height="20" rx="4" fill="#2b2b29" stroke="#4a4a44" stroke-width="1"/><rect x="340" y="230" width="20" height="20" rx="4" fill="#2b2b29" stroke="#4a4a44" stroke-width="1"/><rect x="364" y="230" width="20" height="20" rx="4" fill="#256abf"/><rect x="388" y="230" width="20" height="20" rx="4" fill="#256abf"/><rect x="28" y="254" width="20" height="20" rx="4" fill="#256abf"/><rect x="52" y="254" width="20" height="20" rx="4" fill="#2b2b29" stroke="#4a4a44" stroke-width="1"/><rect x="76" y="254" width="20" height="20" rx="4" fill="#2b2b29" stroke="#4a4a44" stroke-width="1"/><rect x="100" y="254" width="20" height="20" rx="4" fill="#3987e5"/><rect x="124" y="254" width="20" height="20" rx="4" fill="#3987e5"/><rect x="148" y="254" width="20" height="20" rx="4" fill="#256abf"/><rect x="172" y="254" width="20" height="20" rx="4" fill="#2b2b29" stroke="#4a4a44" stroke-width="1"/><rect x="196" y="254" width="20" height="20" rx="4" fill="#256abf"/><rect x="220" y="254" width="20" height="20" rx="4" fill="#256abf"/><rect x="244" y="254" width="20" height="20" rx="4" fill="#256abf"/><rect x="268" y="254" width="20" height="20" rx="4" fill="#2b2b29" stroke="#4a4a44" stroke-width="1"/><rect x="292" y="254" width="20" height="20" rx="4" fill="#2b2b29" stroke="#4a4a44" stroke-width="1"/><rect x="316" y="254" width="20" height="20" rx="4" fill="#2b2b29" stroke="#4a4a44" stroke-width="1"/><rect x="340" y="254" width="20" height="20" rx="4" fill="#256abf"/><rect x="364" y="254" width="20" height="20" rx="4" fill="#2b2b29" stroke="#4a4a44" stroke-width="1"/><rect x="388" y="254" width="20" height="20" rx="4" fill="#2b2b29" stroke="#4a4a44" stroke-width="1"/>
<text x="28" y="298" font-family="system-ui,-apple-system,'Segoe UI',Helvetica,Arial,sans-serif" font-size="12.5" font-weight="600" fill="#c3c2b7" text-anchor="start">128 experts — all must be loaded</text>
<text x="28" y="319" font-family="system-ui,-apple-system,'Segoe UI',Helvetica,Arial,sans-serif" font-size="12" font-weight="400" fill="#898781" text-anchor="start">~61 GB · needs a data-center GPU</text>
<path d="M438 176 h44" stroke="#383835" stroke-width="2" fill="none"/>
<path d="M476 171 l7 5 l-7 5 z" fill="#383835"/>
<text x="460" y="162" font-family="system-ui,-apple-system,'Segoe UI',Helvetica,Arial,sans-serif" font-size="11.5" font-weight="400" fill="#898781" text-anchor="middle">prune</text>
<rect x="508" y="86" width="20" height="20" rx="4" fill="#3987e5"/><rect x="532" y="86" width="20" height="20" rx="4" fill="#3987e5"/><rect x="556" y="86" width="20" height="20" rx="4" fill="#3987e5"/><rect x="580" y="86" width="20" height="20" rx="4" fill="#3987e5"/><rect x="604" y="86" width="20" height="20" rx="4" fill="#256abf"/><rect x="628" y="86" width="20" height="20" rx="4" fill="#3987e5"/><rect x="652" y="86" width="20" height="20" rx="4" fill="#86b6ef"/><rect x="676" y="86" width="20" height="20" rx="4" fill="#3987e5"/><rect x="700" y="86" width="20" height="20" rx="4" fill="#86b6ef"/><rect x="724" y="86" width="20" height="20" rx="4" fill="#256abf"/><rect x="748" y="86" width="20" height="20" rx="4" fill="#256abf"/><rect x="772" y="86" width="20" height="20" rx="4" fill="#86b6ef"/><rect x="508" y="110" width="20" height="20" rx="4" fill="#256abf"/><rect x="532" y="110" width="20" height="20" rx="4" fill="#3987e5"/><rect x="556" y="110" width="20" height="20" rx="4" fill="#256abf"/><rect x="580" y="110" width="20" height="20" rx="4" fill="#256abf"/><rect x="604" y="110" width="20" height="20" rx="4" fill="#86b6ef"/><rect x="628" y="110" width="20" height="20" rx="4" fill="#86b6ef"/><rect x="652" y="110" width="20" height="20" rx="4" fill="#256abf"/><rect x="676" y="110" width="20" height="20" rx="4" fill="#3987e5"/><rect x="700" y="110" width="20" height="20" rx="4" fill="#3987e5"/><rect x="724" y="110" width="20" height="20" rx="4" fill="#256abf"/><rect x="748" y="110" width="20" height="20" rx="4" fill="#256abf"/><rect x="772" y="110" width="20" height="20" rx="4" fill="#3987e5"/><rect x="508" y="134" width="20" height="20" rx="4" fill="#256abf"/><rect x="532" y="134" width="20" height="20" rx="4" fill="#256abf"/><rect x="556" y="134" width="20" height="20" rx="4" fill="#3987e5"/><rect x="580" y="134" width="20" height="20" rx="4" fill="#3987e5"/><rect x="604" y="134" width="20" height="20" rx="4" fill="#86b6ef"/><rect x="628" y="134" width="20" height="20" rx="4" fill="#3987e5"/><rect x="652" y="134" width="20" height="20" rx="4" fill="#86b6ef"/><rect x="676" y="134" width="20" height="20" rx="4" fill="#256abf"/><rect x="700" y="134" width="20" height="20" rx="4" fill="#3987e5"/><rect x="724" y="134" width="20" height="20" rx="4" fill="#3987e5"/><rect x="748" y="134" width="20" height="20" rx="4" fill="#256abf"/><rect x="772" y="134" width="20" height="20" rx="4" fill="#256abf"/><rect x="508" y="158" width="20" height="20" rx="4" fill="#3987e5"/><rect x="532" y="158" width="20" height="20" rx="4" fill="#86b6ef"/><rect x="556" y="158" width="20" height="20" rx="4" fill="#3987e5"/><rect x="580" y="158" width="20" height="20" rx="4" fill="#256abf"/><rect x="604" y="158" width="20" height="20" rx="4" fill="#256abf"/><rect x="628" y="158" width="20" height="20" rx="4" fill="#256abf"/><rect x="652" y="158" width="20" height="20" rx="4" fill="#256abf"/><rect x="676" y="158" width="20" height="20" rx="4" fill="#86b6ef"/><rect x="700" y="158" width="20" height="20" rx="4" fill="#3987e5"/><rect x="724" y="158" width="20" height="20" rx="4" fill="#3987e5"/><rect x="748" y="158" width="20" height="20" rx="4" fill="#256abf"/><rect x="772" y="158" width="20" height="20" rx="4" fill="#256abf"/><rect x="508" y="182" width="20" height="20" rx="4" fill="#256abf"/><rect x="532" y="182" width="20" height="20" rx="4" fill="#3987e5"/><rect x="556" y="182" width="20" height="20" rx="4" fill="#3987e5"/><rect x="580" y="182" width="20" height="20" rx="4" fill="#256abf"/><rect x="604" y="182" width="20" height="20" rx="4" fill="#256abf"/><rect x="628" y="182" width="20" height="20" rx="4" fill="#3987e5"/><rect x="652" y="182" width="20" height="20" rx="4" fill="#256abf"/><rect x="676" y="182" width="20" height="20" rx="4" fill="#86b6ef"/><rect x="700" y="182" width="20" height="20" rx="4" fill="#86b6ef"/><rect x="724" y="182" width="20" height="20" rx="4" fill="#256abf"/><rect x="748" y="182" width="20" height="20" rx="4" fill="#3987e5"/><rect x="772" y="182" width="20" height="20" rx="4" fill="#3987e5"/><rect x="508" y="206" width="20" height="20" rx="4" fill="#256abf"/><rect x="532" y="206" width="20" height="20" rx="4" fill="#3987e5"/><rect x="556" y="206" width="20" height="20" rx="4" fill="#256abf"/><rect x="580" y="206" width="20" height="20" rx="4" fill="#3987e5"/><rect x="604" y="206" width="20" height="20" rx="4" fill="#86b6ef"/><rect x="628" y="206" width="20" height="20" rx="4" fill="#3987e5"/><rect x="652" y="206" width="20" height="20" rx="4" fill="#86b6ef"/><rect x="676" y="206" width="20" height="20" rx="4" fill="#86b6ef"/><rect x="700" y="206" width="20" height="20" rx="4" fill="#86b6ef"/><rect x="724" y="206" width="20" height="20" rx="4" fill="#256abf"/><rect x="748" y="206" width="20" height="20" rx="4" fill="#86b6ef"/><rect x="772" y="206" width="20" height="20" rx="4" fill="#256abf"/><rect x="508" y="230" width="20" height="20" rx="4" fill="#3987e5"/><rect x="532" y="230" width="20" height="20" rx="4" fill="#256abf"/><rect x="556" y="230" width="20" height="20" rx="4" fill="#256abf"/><rect x="580" y="230" width="20" height="20" rx="4" fill="#256abf"/><rect x="604" y="230" width="20" height="20" rx="4" fill="#3987e5"/><rect x="628" y="230" width="20" height="20" rx="4" fill="#256abf"/><rect x="652" y="230" width="20" height="20" rx="4" fill="#86b6ef"/><rect x="676" y="230" width="20" height="20" rx="4" fill="#256abf"/><rect x="700" y="230" width="20" height="20" rx="4" fill="#256abf"/><rect x="724" y="230" width="20" height="20" rx="4" fill="#256abf"/><rect x="748" y="230" width="20" height="20" rx="4" fill="#86b6ef"/><rect x="772" y="230" width="20" height="20" rx="4" fill="#86b6ef"/><rect x="508" y="254" width="20" height="20" rx="4" fill="#3987e5"/><rect x="532" y="254" width="20" height="20" rx="4" fill="#86b6ef"/><rect x="556" y="254" width="20" height="20" rx="4" fill="#256abf"/><rect x="580" y="254" width="20" height="20" rx="4" fill="#256abf"/><rect x="604" y="254" width="20" height="20" rx="4" fill="#256abf"/><rect x="628" y="254" width="20" height="20" rx="4" fill="#3987e5"/><rect x="652" y="254" width="20" height="20" rx="4" fill="#3987e5"/><rect x="676" y="254" width="20" height="20" rx="4" fill="#256abf"/><rect x="700" y="254" width="20" height="20" rx="4" fill="#256abf"/><rect x="724" y="254" width="20" height="20" rx="4" fill="#256abf"/><rect x="748" y="254" width="20" height="20" rx="4" fill="#256abf"/><rect x="772" y="254" width="20" height="20" rx="4" fill="#256abf"/>
<text x="508" y="300" font-family="system-ui,-apple-system,'Segoe UI',Helvetica,Arial,sans-serif" font-size="12.5" font-weight="600" fill="#c3c2b7" text-anchor="start">96 kept — every idle one is gone</text>
<text x="508" y="319" font-family="system-ui,-apple-system,'Segoe UI',Helvetica,Arial,sans-serif" font-size="12" font-weight="400" fill="#898781" text-anchor="start">~15 GB · fits a gaming GPU</text>
<rect x="28" y="325" width="11" height="11" rx="3" fill="#2b2b29" stroke="#4a4a44" stroke-width="1"/>
<text x="45" y="334" font-family="system-ui,-apple-system,'Segoe UI',Helvetica,Arial,sans-serif" font-size="11.5" font-weight="400" fill="#898781" text-anchor="start">never used</text>
<rect x="130.0" y="325" width="11" height="11" rx="3" fill="#256abf"/>
<text x="147.0" y="334" font-family="system-ui,-apple-system,'Segoe UI',Helvetica,Arial,sans-serif" font-size="11.5" font-weight="400" fill="#898781" text-anchor="start">rarely</text>
<rect x="205.6" y="325" width="11" height="11" rx="3" fill="#3987e5"/>
<text x="222.6" y="334" font-family="system-ui,-apple-system,'Segoe UI',Helvetica,Arial,sans-serif" font-size="11.5" font-weight="400" fill="#898781" text-anchor="start">often</text>
<rect x="274.6" y="325" width="11" height="11" rx="3" fill="#86b6ef"/>
<text x="291.6" y="334" font-family="system-ui,-apple-system,'Segoe UI',Helvetica,Arial,sans-serif" font-size="11.5" font-weight="400" fill="#898781" text-anchor="start">heavily</text>
</svg>
